C:\Users\u0150099\Documents\master_thesis\3dpredictsim\Polynomials\CP3_T0_scaled_MRI_v7_scaledMT_left\dummy_motion.mot
nRows=13
nColumns=32

name C:\Users\u0150099\Documents\master_thesis\3dpredictsim\Polynomials\CP3_T0_scaled_MRI_v7_scaledMT_left\dummy_motion.mot
datacolumns 32
datarows 13
range 37.5100000000 37.6300000000
endheader
time	pelvis_tilt	pelvis_list	pelvis_rotation	pelvis_tx	pelvis_ty	pelvis_tz	hip_flexion_r	hip_adduction_r	hip_rotation_r	knee_angle_r	ankle_angle_r	subtalar_angle_r	mtp_angle_r	hip_flexion_l	hip_adduction_l	hip_rotation_l	knee_angle_l	ankle_angle_l	subtalar_angle_l	mtp_angle_l	lumbar_extension	lumbar_bending	lumbar_rotation	arm_flex_r	arm_add_r	arm_rot_r	elbow_flex_r	arm_flex_l	arm_add_l	arm_rot_l	elbow_flex_l
       37.5100000000	        0.0000000000	        0.0000000000	        0.0000000000	        0.0000000000	        0.0000000000	        0.0000000000	      -20.0474076233	      -27.6669333776	        8.4732203422	      -47.9007444701	      -20.0325906825	        1.5777960520	       47.1621867303	        0.0000000000	        0.0000000000	        0.0000000000	        0.0000000000	        0.0000000000	        0.0000000000	        0.0000000000	        4.1224602441	      -27.7566171384	       14.0681519618	        0.0000000000	        0.0000000000	        0.0000000000	        0.0000000000	        0.0000000000	        0.0000000000	        0.0000000000	        0.0000000000	
       37.5200000000	        0.0000000000	        0.0000000000	        0.0000000000	        0.0000000000	        0.0000000000	        0.0000000000	      -25.5904069634	        6.4785292913	       -3.1282788624	      -44.4927778980	       -7.8384123216	       17.8773108774	       34.2626742723	        0.0000000000	        0.0000000000	        0.0000000000	        0.0000000000	        0.0000000000	        0.0000000000	        0.0000000000	       29.2010036135	       12.2865852678	      -15.4483983592	        0.0000000000	        0.0000000000	        0.0000000000	        0.0000000000	        0.0000000000	        0.0000000000	        0.0000000000	        0.0000000000	
       37.5300000000	        0.0000000000	        0.0000000000	        0.0000000000	        0.0000000000	        0.0000000000	        0.0000000000	        0.7916499384	       16.6432573157	       14.0525314348	      -51.7652464885	      -19.1249931685	       -8.1486632089	       -8.4079581761	        0.0000000000	        0.0000000000	        0.0000000000	        0.0000000000	        0.0000000000	        0.0000000000	        0.0000000000	       28.1539505099	       28.0497821960	        3.4022330512	        0.0000000000	        0.0000000000	        0.0000000000	        0.0000000000	        0.0000000000	        0.0000000000	        0.0000000000	        0.0000000000	
       37.5400000000	        0.0000000000	        0.0000000000	        0.0000000000	        0.0000000000	        0.0000000000	        0.0000000000	      -35.0311997274	       28.4284363086	       10.9350539252	      -73.6930649876	       -9.5865193087	      -19.0069570273	       -0.2628362214	        0.0000000000	        0.0000000000	        0.0000000000	        0.0000000000	        0.0000000000	        0.0000000000	        0.0000000000	        6.3251417301	       17.2584927535	      -17.8293526002	        0.0000000000	        0.0000000000	        0.0000000000	        0.0000000000	        0.0000000000	        0.0000000000	        0.0000000000	        0.0000000000	
       37.5500000000	        0.0000000000	        0.0000000000	        0.0000000000	        0.0000000000	        0.0000000000	        0.0000000000	       -5.4066390900	        3.4796092002	       19.2076901010	      -54.1881621087	       29.0835813407	      -22.3613744376	       44.9390343888	        0.0000000000	        0.0000000000	        0.0000000000	        0.0000000000	        0.0000000000	        0.0000000000	        0.0000000000	      -12.6263483572	       29.8963710036	        9.8234822662	        0.0000000000	        0.0000000000	        0.0000000000	        0.0000000000	        0.0000000000	        0.0000000000	        0.0000000000	        0.0000000000	
       37.5600000000	        0.0000000000	        0.0000000000	        0.0000000000	        0.0000000000	        0.0000000000	        0.0000000000	       38.0284410099	      -21.6313825466	      -29.0472426390	      -69.6745133863	       26.0083430733	      -10.8613490858	       -3.7974161586	        0.0000000000	        0.0000000000	        0.0000000000	        0.0000000000	        0.0000000000	        0.0000000000	        0.0000000000	       22.9978493584	       -2.1187654472	       10.7933428878	        0.0000000000	        0.0000000000	        0.0000000000	        0.0000000000	        0.0000000000	        0.0000000000	        0.0000000000	        0.0000000000	
       37.5700000000	        0.0000000000	        0.0000000000	        0.0000000000	        0.0000000000	        0.0000000000	        0.0000000000	      -42.6751151720	       27.5916184096	        4.9967566409	      -37.2519730031	      -20.6090287243	      -12.6006638237	       45.5225775969	        0.0000000000	        0.0000000000	        0.0000000000	        0.0000000000	        0.0000000000	        0.0000000000	        0.0000000000	      -10.4408539475	      -12.6305480715	       19.4750576709	        0.0000000000	        0.0000000000	        0.0000000000	        0.0000000000	        0.0000000000	        0.0000000000	        0.0000000000	        0.0000000000	
       37.5800000000	        0.0000000000	        0.0000000000	        0.0000000000	        0.0000000000	        0.0000000000	        0.0000000000	      -25.2951190665	       19.8766603913	      -17.3767434519	      -84.6480656099	       -5.2995148644	      -13.8976374103	       -0.0707211402	        0.0000000000	        0.0000000000	        0.0000000000	        0.0000000000	        0.0000000000	        0.0000000000	        0.0000000000	      -22.6735861779	        6.7710104410	       -9.5313614663	        0.0000000000	        0.0000000000	        0.0000000000	        0.0000000000	        0.0000000000	        0.0000000000	        0.0000000000	        0.0000000000	
       37.5900000000	        0.0000000000	        0.0000000000	        0.0000000000	        0.0000000000	        0.0000000000	        0.0000000000	      -25.0684635687	       28.4079642794	      -29.0385801914	      -69.7689917175	      -24.9680717919	      -19.3416765512	        5.6489141898	        0.0000000000	        0.0000000000	        0.0000000000	        0.0000000000	        0.0000000000	        0.0000000000	        0.0000000000	        0.6320960386	       19.8733834390	       22.4692782655	        0.0000000000	        0.0000000000	        0.0000000000	        0.0000000000	        0.0000000000	        0.0000000000	        0.0000000000	        0.0000000000	
       37.6000000000	        0.0000000000	        0.0000000000	        0.0000000000	        0.0000000000	        0.0000000000	        0.0000000000	      -14.5060714041	       20.6529396895	      -10.2322411967	      -73.6321179642	       12.7913056322	      -29.1333612868	       48.5406896721	        0.0000000000	        0.0000000000	        0.0000000000	        0.0000000000	        0.0000000000	        0.0000000000	        0.0000000000	      -29.3511594247	       20.4660450548	      -27.8041925264	        0.0000000000	        0.0000000000	        0.0000000000	        0.0000000000	        0.0000000000	        0.0000000000	        0.0000000000	        0.0000000000	
       37.6100000000	        0.0000000000	        0.0000000000	        0.0000000000	        0.0000000000	        0.0000000000	        0.0000000000	       -2.1497565785	      -14.9214294098	       19.1887497221	      -62.1033408689	      -15.5783956478	       -8.8902930522	      -29.0126787523	        0.0000000000	        0.0000000000	        0.0000000000	        0.0000000000	        0.0000000000	        0.0000000000	        0.0000000000	        1.7183305786	      -12.9549064531	      -28.9715208760	        0.0000000000	        0.0000000000	        0.0000000000	        0.0000000000	        0.0000000000	        0.0000000000	        0.0000000000	        0.0000000000	
       37.6200000000	        0.0000000000	        0.0000000000	        0.0000000000	        0.0000000000	        0.0000000000	        0.0000000000	      -49.7266680751	      -12.6289113234	       23.6341842006	      -89.1032674232	      -28.2165053543	      -29.4904249204	      -11.7426764092	        0.0000000000	        0.0000000000	        0.0000000000	        0.0000000000	        0.0000000000	        0.0000000000	        0.0000000000	        0.9516754276	       13.9054244431	       20.1272089307	        0.0000000000	        0.0000000000	        0.0000000000	        0.0000000000	        0.0000000000	        0.0000000000	        0.0000000000	        0.0000000000	
       37.6300000000	        0.0000000000	        0.0000000000	        0.0000000000	        0.0000000000	        0.0000000000	        0.0000000000	      -22.0550871231	      -13.4057267191	        7.2579423320	       -9.2737087400	      -29.9039210107	      -23.7120968916	      -26.2295567289	        0.0000000000	        0.0000000000	        0.0000000000	        0.0000000000	        0.0000000000	        0.0000000000	        0.0000000000	       10.2273354080	       26.6526689159	       -6.5752622805	        0.0000000000	        0.0000000000	        0.0000000000	        0.0000000000	        0.0000000000	        0.0000000000	        0.0000000000	        0.0000000000	
